<?xml version="1.0" standalone="no"?><!DOCTYPE svg PUBLIC "-//W3C//DTD SVG 1.1//EN" "http://www.w3.org/Graphics/SVG/1.1/DTD/svg11.dtd"><svg t="1750311189285" class="icon" viewBox="0 0 1024 1024" version="1.1" xmlns="http://www.w3.org/2000/svg" p-id="6655" xmlns:xlink="http://www.w3.org/1999/xlink" width="200" height="200"><path d="M512 0a512 512 0 1 0 0 1024A512 512 0 0 0 512 0z m0 962.56A450.56 450.56 0 1 1 512 61.44a450.56 450.56 0 0 1 0 901.12zM348.16 491.52c33.92 0 61.44-48 61.44-81.92s-27.52-81.92-61.44-81.92-61.44 48-61.44 81.92 27.52 81.92 61.44 81.92z m327.68 0c33.92 0 61.44-48 61.44-81.92s-27.52-81.92-61.44-81.92-61.44 48-61.44 81.92 27.52 81.92 61.44 81.92z m-315.776 279.68a188.544 188.544 0 0 1 310.464 2.688 75.52 75.52 0 0 0 32.512-7.296c12.16-6.144 15.808-18.176 18.496-25.6-43.392-74.752-120.64-105.792-208.384-105.792-89.216 0-166.016 36.352-208.96 113.152a52.672 52.672 0 0 0 21.312 18.24c9.152 3.968 22.016 4.928 34.56 4.608z" fill="#d81e06" p-id="6656"></path></svg>